<?xml version="1.0" encoding="UTF-8"?>
<svg width="134px" height="46px" viewBox="0 0 134 46" version="1.1" xmlns="http://www.w3.org/2000/svg" xmlns:xlink="http://www.w3.org/1999/xlink">
    <!-- Generator: sketchtool 41.2 (35397) - http://www.bohemiancoding.com/sketch -->
    <title>CF86CD46-5F07-4921-B007-A6CC26099E2A</title>
    <desc>Created with sketchtool.</desc>
    <defs>
        <polygon id="path-1" points="0.0279415167 45.9915854 133.923579 45.9915854 133.923579 0.0625263415 0.0279415167 0.0625263415"></polygon>
    </defs>
    <g id="Page-1" stroke="none" stroke-width="1" fill="none" fill-rule="evenodd">
        <g id="Desktop-HD" transform="translate(-101.000000, -80.000000)">
            <g id="Approach_comment" transform="translate(101.000000, 80.000000)">
                <mask id="mask-2" fill="white">
                    <use xlink:href="#path-1"></use>
                </mask>
                <g id="Clip-5"></g>
                <path d="M24.1732303,25.0612488 C24.1732303,24.4108537 24.0685565,23.803878 23.8581892,23.235161 C23.6480485,22.6690244 23.3485273,22.1773854 22.9607582,21.7608049 C22.573329,21.3443366 22.1066015,21.0148195 21.5609154,20.7727024 C21.0137567,20.530922 20.3943231,20.4098634 19.7044273,20.4098634 C19.0146448,20.4098634 18.3824102,20.530922 17.8104424,20.7727024 C17.2388144,21.0148195 16.7424066,21.3443366 16.3218987,21.7608049 C15.8998048,22.1773854 15.5729822,22.6690244 15.3367864,23.235161 C15.1004772,23.803878 14.9837047,24.4108537 14.9837047,25.0612488 C14.9837047,25.7118683 15.1004772,26.3197415 15.3367864,26.887 C15.5729822,27.4536976 15.8998048,27.9453366 16.3218987,28.3622537 C16.7424066,28.778161 17.2388144,29.1088 17.8104424,29.3483366 C18.3824102,29.5904537 19.0146448,29.7126341 19.7044273,29.7126341 C20.3943231,29.7126341 21.0137567,29.5904537 21.5609154,29.3483366 C22.1066015,29.1088 22.573329,28.778161 22.9607582,28.3622537 C23.3485273,27.9453366 23.6480485,27.4536976 23.8581892,26.887 C24.0685565,26.3197415 24.1732303,25.7118683 24.1732303,25.0612488 L24.1732303,25.0612488 Z M13.392447,12.0089171 L15.0583358,12.0089171 L15.0583358,21.1606732 L15.1088602,21.1606732 C15.3783614,20.7606976 15.6982737,20.4187268 16.0681439,20.1346488 C16.4380142,19.852478 16.8254433,19.619 17.2305447,19.4360098 C17.6334937,19.2512244 18.0511696,19.1193951 18.4807402,19.0348 C18.9096311,18.9521122 19.3169981,18.909478 19.7044273,18.909478 C20.6304057,18.909478 21.4758396,19.0634098 22.2424283,19.3726195 C23.0079974,19.6812683 23.6676466,20.110078 24.2239813,20.6610683 C24.7794097,21.2098146 25.2132851,21.8604341 25.5240214,22.6104585 C25.835664,23.3610439 25.9910888,24.178161 25.9910888,25.0612488 C25.9910888,25.9465805 25.835664,26.7614537 25.5240214,27.512039 C25.2132851,28.2613902 24.7794097,28.9134683 24.2239813,29.4619902 C23.6676466,30.0124195 23.0079974,30.4415659 22.2424283,30.7489805 C21.4758396,31.0585268 20.6304057,31.2132439 19.7044273,31.2132439 C19.3169981,31.2132439 18.9096311,31.1698244 18.4807402,31.0875854 C18.0511696,31.0031024 17.6334937,30.8706 17.2305447,30.6876098 C16.8254433,30.503722 16.4380142,30.2702439 16.0681439,29.9893073 C15.6982737,29.7048927 15.3783614,29.3618 15.1088602,28.9623854 L15.0583358,28.9623854 L15.0583358,30.912 L13.392447,30.912 L13.392447,12.0089171 Z" id="Fill-4" fill="#231F1F" mask="url(#mask-2)"></path>
                <path d="M19.704314,21.1232 C19.1150139,21.1232 18.5728396,21.2261951 18.0934243,21.4285951 C17.6091378,21.6336878 17.1845517,21.9154098 16.8311075,22.265122 C16.4756242,22.6162927 16.2049902,23.0223268 16.0023263,23.5076829 C15.8017014,23.990122 15.7039378,24.4987024 15.7039378,25.0611366 C15.7039378,25.6163902 15.8043069,26.1388829 16.0023263,26.615039 C16.2049902,27.1001707 16.4756242,27.5066537 16.8302012,27.8561415 C17.1862509,28.2084341 17.6097042,28.4899317 18.0911586,28.6904244 C19.0556534,29.1000488 20.356713,29.1000488 21.2667185,28.6974927 C21.7196255,28.4982341 22.110793,28.2227951 22.431385,27.8784683 C22.7533363,27.5332439 23.005845,27.116439 23.1823405,26.6401707 C23.3621213,26.1566098 23.4533144,25.6249171 23.4533144,25.0611366 C23.4533144,24.4987024 23.3621213,23.9664488 23.1820007,23.4803073 C23.005845,23.0066195 22.7533363,22.5903756 22.431385,22.2440293 C22.1122657,21.9008244 21.7201919,21.6250488 21.2661521,21.4232098 C20.8152842,21.2239512 20.289536,21.1232 19.704314,21.1232 L19.704314,21.1232 Z M14.1124082,30.199 L14.3381254,30.199 L14.3381254,28.2490488 L15.2816174,28.2490488 C15.0392022,27.9172878 14.8350996,27.5526537 14.6710766,27.1584 C14.4006804,26.5105854 14.2634603,25.8045415 14.2634603,25.0611366 C14.2634603,24.319639 14.4006804,23.6135951 14.670782,22.9635366 C14.8350996,22.5700683 15.0392022,22.2061073 15.2816174,21.8737854 L14.3888537,21.8737854 L14.3381254,21.1608976 L14.3381254,12.7222537 L14.1124082,12.7222537 L14.1124082,30.199 Z M16.8389241,29.6570976 C17.0640182,29.8049707 17.295796,29.9328732 17.5304059,30.0402439 C17.8760335,30.1961951 18.2432982,30.313439 18.6218913,30.3886098 C19.9669049,30.646322 21.0231592,30.4708488 21.9704349,30.0893854 C22.6423186,29.8189951 23.2292399,29.4384293 23.714999,28.9582341 C24.1996253,28.4786 24.5841091,27.9006829 24.8580284,27.240639 C25.1318343,26.5802585 25.270833,25.8470634 25.270833,25.0611366 C25.270833,24.2748732 25.1318343,23.541678 24.8580284,22.8812976 C24.5850154,22.2226 24.2007582,21.6453561 23.7155654,21.1662829 C23.2295797,20.6849659 22.6426585,20.3037268 21.9706614,20.0336732 C21.0222529,19.6505268 19.9571625,19.4766244 18.6187193,19.7350098 C18.2419388,19.808722 17.8760335,19.926639 17.5327848,20.0833756 C17.2989679,20.1889512 17.0694558,20.3151707 16.8458344,20.4604634 C17.0625455,20.332561 17.2894521,20.217561 17.5272339,20.1173707 C18.8510636,19.5571805 20.5814673,19.5588634 21.8539795,20.1212976 C22.4884798,20.4027951 23.0384706,20.7922244 23.4904713,21.2775805 C23.9409994,21.7623756 24.2921779,22.3377122 24.5340379,22.9894537 C24.7723861,23.6333415 24.8931462,24.3307463 24.8931462,25.0611366 C24.8931462,25.7934341 24.7723861,26.4894927 24.5340379,27.1332683 C24.2924044,27.7836634 23.9409994,28.3603463 23.4904713,28.8451415 C23.0358651,29.3342 22.4844016,29.7227317 21.8525069,30.0003024 C20.5806743,30.5641951 18.8529894,30.5655415 17.5272339,30.0040049 C17.2877528,29.903478 17.0576743,29.7881415 16.8389241,29.6570976 L16.8389241,29.6570976 Z M19.704314,31.9260195 C19.2747434,31.9260195 18.8299929,31.8817024 18.3438938,31.7886927 C17.8524705,31.6907463 17.3782663,31.5391707 16.9307969,31.3373317 C16.5347582,31.1562488 16.1478954,30.9316341 15.778365,30.6640488 L15.778365,31.6256732 L12.6722025,31.6256732 L12.6722025,11.2961415 L15.778365,11.2961415 L15.778365,19.4584488 C16.1499345,19.1903024 16.5367973,18.9655756 16.9322696,18.7871854 C17.3750943,18.5844488 17.8504314,18.4319756 18.3407219,18.3354878 C19.9539906,18.0223512 21.3079536,18.2253122 22.5140818,18.7123512 C23.3645002,19.0552195 24.1113776,19.5411366 24.7329635,20.1569756 C25.3535299,20.7700098 25.8441602,21.5045512 26.1904676,22.3397317 C26.5357553,23.1727805 26.7110047,24.0884049 26.7110047,25.0611366 C26.7110047,26.0343171 26.5357553,26.9497171 26.1901277,27.7836634 C25.8433673,28.6192927 25.3527369,29.3539463 24.7322838,29.9663073 C24.1099049,30.5818098 23.3630275,31.0680634 22.512949,31.4092488 C21.6642299,31.7524537 20.7189933,31.9260195 19.704314,31.9260195 L19.704314,31.9260195 Z" id="Fill-6" fill="#231F1F" mask="url(#mask-2)"></path>
                <path d="M39.9785283,25.0612488 C39.9785283,24.4108537 39.8738544,23.803878 39.6633739,23.235161 C39.4532332,22.6690244 39.1537119,22.1773854 38.7660562,21.7608049 C38.3785137,21.3443366 37.9118995,21.0148195 37.3662134,20.7727024 C36.8190546,20.530922 36.1995078,20.4098634 35.5097253,20.4098634 C34.8196029,20.4098634 34.1877082,20.530922 33.6157403,20.7727024 C33.0441124,21.0148195 32.5477046,21.3443366 32.1270834,21.7608049 C31.7045363,22.1773854 31.3781669,22.6690244 31.1420843,23.235161 C30.9056619,23.803878 30.78898,24.4108537 30.78898,25.0612488 C30.78898,25.7118683 30.9056619,26.3197415 31.1420843,26.887 C31.3781669,27.4536976 31.7045363,27.9453366 32.1270834,28.3622537 C32.5477046,28.778161 33.0441124,29.1088 33.6157403,29.3483366 C34.1877082,29.5904537 34.8196029,29.7126341 35.5097253,29.7126341 C36.1995078,29.7126341 36.8190546,29.5904537 37.3662134,29.3483366 C37.9118995,29.1088 38.3785137,28.778161 38.7660562,28.3622537 C39.1537119,27.9453366 39.4532332,27.4536976 39.6633739,26.887 C39.8738544,26.3197415 39.9785283,25.7118683 39.9785283,25.0612488 L39.9785283,25.0612488 Z M29.1976883,19.2103854 L30.8632939,19.2103854 L30.8632939,21.1606732 L30.9140449,21.1606732 C31.1833195,20.7606976 31.5032318,20.4187268 31.873102,20.1346488 C32.2433121,19.852478 32.6307413,19.619 33.0357294,19.4360098 C33.4387917,19.251561 33.8564675,19.1193951 34.2859249,19.0351366 C34.714929,18.9521122 35.1219562,18.9098146 35.5097253,18.9098146 C36.4355904,18.9098146 37.2807977,19.0634098 38.0473864,19.3726195 C38.8132954,19.6812683 39.4728312,20.110078 40.0291659,20.6610683 C40.5847077,21.2098146 41.018583,21.8604341 41.3293194,22.6104585 C41.640962,23.3613805 41.7962735,24.178161 41.7962735,25.0612488 C41.7962735,25.9465805 41.640962,26.7614537 41.3293194,27.512039 C41.018583,28.2613902 40.5847077,28.9134683 40.0291659,29.4619902 C39.4728312,30.0124195 38.8132954,30.4415659 38.0473864,30.7489805 C37.2807977,31.0585268 36.4355904,31.2132439 35.5097253,31.2132439 C35.1219562,31.2132439 34.714929,31.1698244 34.2859249,31.087922 C33.8564675,31.0031024 33.4387917,30.8706 33.0357294,30.6876098 C32.6307413,30.503722 32.2433121,30.2702439 31.873102,29.9893073 C31.5032318,29.7048927 31.1833195,29.3618 30.9140449,28.9623854 L30.8632939,28.9623854 L30.8632939,38.1138049 L29.1976883,38.1138049 L29.1976883,19.2103854 Z" id="Fill-7" fill="#231F1F" mask="url(#mask-2)"></path>
                <path d="M35.509612,21.1232 C34.9203118,21.1232 34.3781375,21.2261951 33.8983824,21.4285951 C33.4144358,21.6336878 32.9895098,21.9154098 32.6364055,22.265122 C32.2812621,22.6155073 32.0102882,23.0214293 31.8076242,23.5076829 C31.6066595,23.990122 31.5088959,24.4987024 31.5088959,25.0611366 C31.5088959,25.6163902 31.6094916,26.1388829 31.8076242,26.615039 C32.0102882,27.1012927 32.2812621,27.5081122 32.6351594,27.8561415 C32.991209,28.2087707 33.4150022,28.4899317 33.8964566,28.6904244 C34.8609513,29.1000488 36.1616712,29.1000488 37.0720164,28.6974927 C37.5249234,28.4982341 37.9157511,28.2227951 38.2365696,27.8784683 C38.5586343,27.5332439 38.811143,27.116439 38.9875252,26.6401707 C39.1671927,26.1566098 39.2582725,25.6249171 39.2582725,25.0611366 C39.2582725,24.4987024 39.1671927,23.9664488 38.9872986,23.4803073 C38.811143,23.0066195 38.5586343,22.5903756 38.2365696,22.2440293 C37.9172238,21.9008244 37.52515,21.6250488 37.07145,21.4232098 C36.6205822,21.2239512 36.0947207,21.1232 35.509612,21.1232 L35.509612,21.1232 Z M32.6438822,29.6570976 C32.8693161,29.8049707 33.1010939,29.9328732 33.3354773,30.0402439 C33.6811049,30.1967561 34.0485962,30.313439 34.4268494,30.3886098 C35.771863,30.646322 36.8284572,30.4708488 37.7757328,30.0893854 C38.4476166,29.8189951 39.0343112,29.4384293 39.520297,28.9582341 C40.0049233,28.4786 40.3894071,27.9010195 40.6633263,27.240639 C40.9371323,26.5802585 41.076131,25.8476244 41.076131,25.0611366 C41.076131,24.2750976 40.9371323,23.541678 40.6633263,22.8812976 C40.3903134,22.2226 40.0054897,21.6453561 39.5206368,21.1662829 C39.0348777,20.6849659 38.4479564,20.3037268 37.7759594,20.0336732 C36.827211,19.6505268 35.7623472,19.4766244 34.4236775,19.7350098 C34.0471235,19.808722 33.6811049,19.926639 33.3379695,20.0833756 C33.1042659,20.1889512 32.8747537,20.3151707 32.6513589,20.4608 C32.8676169,20.332561 33.0947501,20.217561 33.3323053,20.1173707 C34.6565881,19.5571805 36.3865387,19.5588634 37.6591642,20.1216341 C38.2934379,20.4027951 38.8437686,20.7922244 39.2957693,21.2775805 C39.7462973,21.7623756 40.0973625,22.3377122 40.3392226,22.9894537 C40.5776841,23.6333415 40.6984442,24.3307463 40.6984442,25.0611366 C40.6984442,25.7934341 40.5776841,26.4894927 40.3392226,27.1332683 C40.0977024,27.7836634 39.7462973,28.3603463 39.2957693,28.8451415 C38.8408232,29.3342 38.2896996,29.7227317 37.6578048,30.0003024 C36.3859723,30.5641951 34.6582873,30.5655415 33.3323053,30.0040049 C33.0929375,29.903478 32.8629722,29.788478 32.6438822,29.6570976 L32.6438822,29.6570976 Z M29.9177175,37.4002439 L30.143378,37.4002439 L30.143378,28.2490488 L31.0863489,28.2490488 C30.8447155,27.9172878 30.6406921,27.5526537 30.4763179,27.1584 C30.2059104,26.5105854 30.0687243,25.8045415 30.0687243,25.0611366 C30.0687243,24.319639 30.2059104,23.6135951 30.4760913,22.9635366 C30.6406921,22.5704049 30.8447155,22.2052098 31.0863489,21.8737854 L30.1937891,21.8737854 L30.143378,21.1608976 L30.143378,19.923722 L29.9177175,19.923722 L29.9177175,37.4002439 Z M31.5835497,38.8269171 L28.4774325,38.8269171 L28.4774325,18.4973854 L31.5835497,18.4973854 L31.5835497,19.4584488 C31.9552325,19.1903024 32.3420952,18.9655756 32.7375675,18.7871854 C33.1800524,18.5844488 33.6553895,18.4319756 34.1460199,18.3352634 C35.7591753,18.0245951 37.113818,18.2253122 38.3193798,18.7123512 C39.1697982,19.0552195 39.9166755,19.5411366 40.5381482,20.1569756 C41.1588279,20.7700098 41.6494582,21.5045512 41.9956522,22.3397317 C42.3410533,23.1727805 42.5163027,24.0884049 42.5163027,25.0611366 C42.5163027,26.0343171 42.3410533,26.9497171 41.9954257,27.7836634 C41.6485519,28.6192927 41.1579216,29.3539463 40.5375818,29.9679902 C39.9152029,30.5818098 39.1683255,31.0680634 38.318247,31.4092488 C37.1097398,31.8971854 35.7825117,32.1018293 34.1491918,31.7886927 C33.6577685,31.6907463 33.1832244,31.5391707 32.7360949,31.3373317 C32.3397163,31.1562488 31.9531934,30.9316341 31.5835497,30.6640488 L31.5835497,38.8269171 Z" id="Fill-8" fill="#231F1F" mask="url(#mask-2)"></path>
                <path d="M51.5405705,25.0612488 C51.5405705,25.7118683 51.6461506,26.3197415 51.8562913,26.887 C52.0666585,27.4536976 52.3647071,27.9453366 52.753609,28.3622537 C53.1396787,28.778161 53.6071993,29.1088 54.1528853,29.3483366 C54.7009503,29.5904537 55.3195909,29.7126341 56.0097133,29.7126341 C56.6825033,29.7126341 57.3103199,29.5904537 57.8906706,29.3483366 C58.4706816,29.1088 58.9721871,28.778161 59.3925818,28.3622537 C59.8130897,27.9453366 60.1414982,27.4536976 60.3778074,26.887 C60.6127571,26.3197415 60.7306851,25.7118683 60.7306851,25.0612488 C60.7306851,24.4108537 60.6127571,23.803878 60.3778074,23.235161 C60.1414982,22.6690244 59.8130897,22.1773854 59.3925818,21.7608049 C58.9721871,21.3443366 58.4706816,21.0148195 57.8906706,20.7727024 C57.3103199,20.530922 56.6825033,20.4098634 56.0097133,20.4098634 C55.3195909,20.4098634 54.7009503,20.530922 54.1528853,20.7727024 C53.6071993,21.0148195 53.1396787,21.3443366 52.753609,21.7608049 C52.3647071,22.1773854 52.0666585,22.6690244 51.8562913,23.235161 C51.6461506,23.803878 51.5405705,24.4108537 51.5405705,25.0612488 L51.5405705,25.0612488 Z M62.3222034,30.912 L60.6556915,30.912 L60.6556915,28.9623854 L60.6056203,28.9623854 C60.3363457,29.3618 60.0149607,29.7048927 59.6450904,29.9893073 C59.2746538,30.2702439 58.8883574,30.503722 58.4841623,30.6876098 C58.080307,30.8706 57.6628578,31.0031024 57.2339669,31.087922 C56.8047361,31.1698244 56.3968026,31.2132439 56.0097133,31.2132439 C55.0840748,31.2132439 54.2381877,31.0585268 53.4722787,30.7489805 C52.7058034,30.4415659 52.0447948,30.0124195 51.4907258,29.4619902 C50.9343911,28.9134683 50.501422,28.2613902 50.1897794,27.512039 C49.879043,26.7614537 49.7236182,25.9465805 49.7236182,25.0612488 C49.7236182,24.178161 49.879043,23.3613805 50.1897794,22.6104585 C50.501422,21.8604341 50.9343911,21.2098146 51.4907258,20.6610683 C52.0447948,20.110078 52.7058034,19.6812683 53.4722787,19.3726195 C54.2381877,19.0634098 55.0840748,18.9098146 56.0097133,18.9098146 C56.3968026,18.9098146 56.8047361,18.9521122 57.2339669,19.0351366 C57.6628578,19.1193951 58.080307,19.251561 58.4841623,19.4360098 C58.8883574,19.619 59.2746538,19.852478 59.6450904,20.1346488 C60.0149607,20.4187268 60.3363457,20.7606976 60.6056203,21.1606732 L60.6556915,21.1606732 L60.6556915,12.0089171 L62.3222034,12.0089171 L62.3222034,30.912 Z" id="Fill-9" fill="#231F1F" mask="url(#mask-2)"></path>
                <path d="M56.0094867,21.1232 C55.425171,21.1232 54.899083,21.2239512 54.4459494,21.4237707 C53.9922495,21.6256098 53.6009687,21.901722 53.2842283,22.2438049 C52.9615972,22.5883561 52.7094284,23.0049366 52.5321399,23.4810927 C52.3519061,23.9675707 52.2608262,24.5000488 52.2608262,25.0611366 C52.2608262,25.6235707 52.3519061,26.1553756 52.5321399,26.6401707 C52.7094284,27.118122 52.9615972,27.5343659 53.2825291,27.8772341 C53.6024414,28.2227951 53.9930425,28.4971122 54.4448166,28.6958098 C55.348818,29.096122 56.6206506,29.1040878 57.6108607,28.6904244 C58.1026239,28.4867902 58.5299288,28.2073122 58.8835995,27.8572634 C59.2344382,27.5092341 59.5134551,27.0915317 59.7120409,26.615039 C59.9101736,26.1372 60.0107692,25.6135854 60.0107692,25.0611366 C60.0107692,24.5015073 59.9130056,23.993039 59.7114745,23.5056634 C59.5132286,23.0306293 59.2344382,22.6125902 58.8835995,22.265122 C58.531628,21.9170927 58.1031903,21.6353707 57.6108607,21.4294927 C57.1222694,21.2261951 56.5831538,21.1232 56.0094867,21.1232 L56.0094867,21.1232 Z M61.3757207,30.199 L61.6019476,30.199 L61.6019476,12.7222537 L61.3757207,12.7222537 L61.3757207,21.8737854 L60.4321834,21.8737854 C60.6751763,22.2066683 60.8795395,22.5709659 61.0433473,22.9632 C61.3139813,23.6184195 61.4509409,24.3231171 61.4509409,25.0611366 C61.4509409,25.800278 61.3139813,26.5052 61.0441402,27.157278 C60.8798793,27.5511951 60.6751763,27.9158293 60.4321834,28.2490488 L61.325876,28.2490488 L61.3757207,28.962161 L61.3757207,30.199 Z M56.0094867,19.6228146 C55.1807055,19.6228146 54.4185349,19.7607024 53.7440456,20.0331122 C53.0691032,20.3046244 52.4825218,20.6857512 52.0008409,21.1648244 C51.5145153,21.6438976 51.1299182,22.221478 50.8555458,22.8821951 C50.5825329,23.5424634 50.4435342,24.2756585 50.4435342,25.0611366 C50.4435342,25.8476244 50.5825329,26.5802585 50.8561122,27.241761 C51.1308245,27.9021415 51.5154215,28.4802829 51.9988018,28.9567756 C52.4828617,29.4369707 53.069443,29.8175366 53.7431393,30.0893854 C54.6909814,30.4721951 55.7379465,30.650361 57.0971205,30.3871512 C57.4705026,30.313439 57.8383337,30.1967561 58.1850942,30.039122 C58.4293331,29.9289463 58.6717596,29.7924049 58.9095414,29.6351073 C58.6751581,29.7744537 58.4275206,29.8997756 58.1677618,30.0071463 C56.8169707,30.568122 55.1224778,30.5601561 53.8592548,29.9982829 C53.2273601,29.7213854 52.6762364,29.3325171 52.2231029,28.8436829 C51.7748405,28.3632634 51.4230956,27.7882634 51.1806691,27.1332683 C50.9414146,26.4883707 50.8206545,25.7919756 50.8206545,25.0611366 C50.8206545,24.3322049 50.9414146,23.6346878 51.1801027,22.9903512 C51.4234354,22.3351317 51.7748405,21.7590098 52.2248021,21.2770195 C52.6730645,20.7927854 53.2233952,20.4040293 53.8584618,20.1221951 C55.1216848,19.5634634 56.8169707,19.5512341 58.1695743,20.1153512 C58.4278605,20.2232829 58.673119,20.3465854 58.9052366,20.4859317 C58.6697205,20.3288585 58.4286534,20.1944488 58.1856606,20.0850585 C57.8383337,19.926639 57.4719752,19.808722 57.093722,19.7342244 C56.7105976,19.6602878 56.345372,19.6228146 56.0094867,19.6228146 L56.0094867,19.6228146 Z M56.0094867,31.9260195 C54.9944676,31.9260195 54.049231,31.7524537 53.2006252,31.4092488 C52.3479411,31.0671659 51.6007239,30.5804634 50.9809505,29.9663073 C50.3628764,29.3561902 49.872246,28.6209756 49.5236731,27.7836634 C49.1786119,26.9497171 49.0033625,26.0329707 49.0033625,25.0611366 C49.0033625,24.0891902 49.1786119,23.1733415 49.5234465,22.3405171 C49.8711132,21.5026439 50.3619701,20.7685512 50.9826498,20.1564146 C51.5998177,19.5425951 52.346695,19.0557805 53.2011916,18.7121268 C54.4050541,18.2264341 55.7664939,18.0257171 57.3716062,18.3352634 C57.8637092,18.4319756 58.3384799,18.5844488 58.785836,18.7886439 C59.1767769,18.9647902 59.5630733,19.1903024 59.935549,19.4590098 L59.935549,11.2961415 L63.0422326,11.2961415 L63.0422326,31.6256732 L59.935549,31.6256732 L59.935549,30.6640488 C59.5627334,30.9316341 59.1770035,31.1571463 58.7847031,31.3358732 C58.3353079,31.5391707 57.8616701,31.6907463 57.375118,31.7870098 C56.8913979,31.8803561 56.4336197,31.9260195 56.0094867,31.9260195 L56.0094867,31.9260195 Z" id="Fill-10" fill="#231F1F" mask="url(#mask-2)"></path>
                <path d="M68.4798351,30.9118878 L66.8133232,30.9118878 L66.8133232,19.2097122 L68.4798351,19.2097122 L68.4798351,30.9118878 Z M68.8583149,14.709678 C68.8583149,15.0588293 68.7317774,15.3471707 68.4798351,15.5724585 C68.2281194,15.7965122 67.9496689,15.9092683 67.6472022,15.9092683 C67.3433762,15.9092683 67.0649256,15.7965122 66.8133232,15.5724585 C66.5616075,15.3471707 66.43507,15.0588293 66.43507,14.709678 C66.43507,14.3581707 66.5616075,14.0724098 66.8133232,13.8462244 C67.0649256,13.6216098 67.3433762,13.5088537 67.6472022,13.5088537 C67.9496689,13.5088537 68.2281194,13.6216098 68.4798351,13.8462244 C68.7317774,14.0724098 68.8583149,14.3581707 68.8583149,14.709678 L68.8583149,14.709678 Z" id="Fill-11" fill="#231F1F" mask="url(#mask-2)"></path>
                <polygon id="Fill-12" fill="#231F1F" mask="url(#mask-2)" points="66.0935206 31.6256732 69.2002042 31.6256732 69.2002042 18.4964878 66.0935206 18.4964878"></polygon>
                <polygon id="Fill-13" fill="#231F1F" mask="url(#mask-2)" points="67.5333524 30.199 67.759934 30.199 67.759934 19.9229119 67.5333524 19.9229119"></polygon>
                <path d="M67.6474288,16.6224927 C67.1685799,16.6224927 66.7136338,16.4428683 66.3317556,16.1022439 C65.927787,15.7416488 65.7148142,15.2603317 65.7148142,14.7095659 C65.7148142,14.1600341 65.9275604,13.6786049 66.3302829,13.3180098 C67.0941527,12.6345171 68.1976462,12.6337317 68.9621958,13.3172244 C69.3654846,13.6786049 69.5782308,14.1600341 69.5782308,14.7095659 C69.5782308,15.2603317 69.3651448,15.7416488 68.9621958,16.1016829 C68.5790714,16.4428683 68.1250315,16.6224927 67.6474288,16.6224927" id="Fill-14" fill="#231F1F" mask="url(#mask-2)"></path>
                <path d="M74.1841067,24.9109073 C74.1841067,25.5273073 74.2979565,26.1083659 74.5242967,26.6488098 C74.7508635,27.1903756 75.0630725,27.6668683 75.4583182,28.074922 C75.8549234,28.4817415 76.3173461,28.8077805 76.8460397,29.0498976 C77.3781318,29.2920146 77.9547442,29.411839 78.5759903,29.411839 C79.1825095,29.411839 79.7590087,29.3036829 80.3058276,29.0875951 C80.8533262,28.8713951 81.3367064,28.566561 81.7573276,28.1751122 C82.1779488,27.7822049 82.504205,27.3117707 82.7294123,26.7615659 C82.9574518,26.211361 83.0625788,25.5941756 83.0455863,24.9109073 C83.0455863,24.2950683 82.9447641,23.7158049 82.7432329,23.1739024 C82.5405689,22.6321122 82.2456923,22.1569659 81.8588295,21.7475659 C81.4701542,21.3396244 81.0005946,21.0141463 80.4453927,20.7734878 C79.889851,20.5308098 79.2669057,20.4097512 78.5759903,20.4097512 C77.9547442,20.4097512 77.3781318,20.5308098 76.8460397,20.7734878 C76.3173461,21.0141463 75.8549234,21.3396244 75.4583182,21.7475659 C75.0630725,22.1569659 74.7508635,22.6321122 74.5242967,23.1739024 C74.2979565,23.7158049 74.1841067,24.2950683 74.1841067,24.9109073 L74.1841067,24.9109073 Z M73.8814135,33.2619268 C74.3683055,33.9125463 75.0054113,34.4339171 75.7871799,34.8246927 C76.5704212,35.2178244 77.4398712,35.4128195 78.400401,35.4128195 C79.2415302,35.4128195 79.9556686,35.2929951 80.5463282,35.0503171 C81.1355151,34.8095463 81.6114186,34.4792439 81.9726793,34.0615415 C82.3338268,33.6464195 82.5944918,33.1591561 82.7559207,32.6004244 C82.9164432,32.042478 82.9948353,31.4460488 82.9948353,30.8116976 L82.9948353,28.7129756 L82.9447641,28.7129756 C82.4059883,29.5123659 81.7489446,30.0777171 80.975559,30.4120585 C80.2007006,30.7466244 79.3851735,30.9136829 78.5258058,30.9136829 C77.6675708,30.9136829 76.8647315,30.7614341 76.1146822,30.4622098 C75.3668985,30.1630976 74.714273,29.749322 74.1587312,29.2238 C73.6029629,28.6987268 73.1656891,28.0706585 72.8462299,27.3365659 C72.5254114,26.6025854 72.3665881,25.8113854 72.3665881,24.9611707 C72.3665881,24.1107317 72.5173683,23.3195317 72.8197216,22.5861122 C73.1233211,21.8526927 73.5398641,21.2099268 74.0700303,20.6606195 C74.6000833,20.1101902 75.2302788,19.6805951 75.9644684,19.3727317 C76.6958259,19.0649805 77.4990051,18.9102634 78.3753654,18.9102634 C78.7281299,18.9102634 79.1034377,18.9431366 79.4990233,19.0104537 C79.8939292,19.077322 80.2894015,19.1945659 80.6844207,19.3593805 C81.0810258,19.5266634 81.4701542,19.756439 81.8588295,20.0476976 C82.2456923,20.3395171 82.6071796,20.7106585 82.9447641,21.1597756 L82.9948353,21.1597756 L82.9948353,19.2097122 L84.6616871,19.2097122 L84.6616871,30.8116976 C84.6616871,31.4460488 84.5812558,32.1213512 84.4226591,32.8373805 C84.2610037,33.5545317 83.9501541,34.2134537 83.4872782,34.8121268 C83.0248554,35.4128195 82.3806128,35.9142195 81.5561363,36.3121756 C80.7307536,36.7139463 79.6535419,36.9146634 78.3242746,36.9146634 C77.1457875,36.9146634 76.0939513,36.7219122 75.1685393,36.3387659 C74.2432406,35.9558439 73.400299,35.3626683 72.643566,34.5629415 L73.8814135,33.2619268 Z" id="Fill-15" fill="#231F1F" mask="url(#mask-2)"></path>
                <path d="M78.5763301,21.1232 C78.0623634,21.1232 77.5815887,21.2233902 77.1473735,21.4211902 C76.7039823,21.6230293 76.3102093,21.899478 75.9770429,22.2423463 C75.6454624,22.5861122 75.3800394,22.9914732 75.1897233,23.4468732 C75.0000869,23.900478 74.9040226,24.392678 74.9040226,24.9109073 C74.9040226,25.429922 75.0000869,25.9230195 75.1897233,26.3755024 C75.3806058,26.8325854 75.6460288,27.237722 75.9776093,27.5818244 C76.3105491,27.9232341 76.7048886,28.1990098 77.1488462,28.4023073 C78.0113859,28.796 79.1070628,28.7937561 80.0393851,28.4246341 C80.4982961,28.2435512 80.9101945,27.9860634 81.2638652,27.6554244 C81.6101725,27.3328634 81.8787674,26.9408537 82.0621732,26.4939805 C82.2521494,26.0357756 82.3402839,25.5090195 82.3262368,24.9286341 C82.3258969,24.3826927 82.2391218,23.8816293 82.0676108,23.419722 C81.9004045,22.973522 81.6533335,22.5735463 81.3328548,22.2346049 C81.008751,21.8939805 80.6237008,21.6293122 80.156067,21.4266878 C79.6943239,21.2245122 79.1630248,21.1232 78.5763301,21.1232 L78.5763301,21.1232 Z M78.3751388,19.6233756 C77.6017532,19.6233756 76.8856889,19.7601415 76.2462042,20.0288488 C75.6088719,20.296322 75.0519707,20.6743073 74.5912472,21.1528195 C74.1265588,21.6342488 73.7549892,22.2072293 73.4860545,22.8570634 C73.2214245,23.4985951 73.0870704,24.2068829 73.0870704,24.9611707 C73.0870704,25.7111951 73.2281082,26.4146585 73.5076916,27.0539463 C73.786482,27.6945805 74.1726651,28.2518537 74.6555922,28.7087122 C75.1439568,29.169722 75.725667,29.537161 76.3846365,29.8010439 C77.7086927,30.3285854 79.325813,30.3437317 80.6879324,29.7590829 C80.9491639,29.6462146 81.1923834,29.5026049 81.4204228,29.3273561 C81.1529607,29.4918341 80.8698656,29.6319659 80.57261,29.7507805 C79.2820856,30.2592488 77.7622757,30.2531902 76.5454989,29.6976 C75.9380734,29.4190195 75.3987312,29.0404732 74.9403866,28.5704878 C74.482042,28.0971366 74.1188555,27.5430049 73.8593232,26.9214439 C73.5970722,26.2961805 73.4638509,25.6191951 73.4638509,24.9109073 C73.4638509,24.204639 73.5970722,23.5285512 73.8593232,22.9009317 C74.1173828,22.2826244 74.4805693,21.7289415 74.9375545,21.2548049 C75.3975983,20.781678 75.9378468,20.4022341 76.5454989,20.125561 C77.6107026,19.6411024 78.9306806,19.5880341 80.0272637,19.8758146 C79.8087401,19.8038976 79.5913493,19.7495951 79.3771304,19.7135805 C79.0243659,19.6536683 78.6899534,19.6233756 78.3751388,19.6233756 L78.3751388,19.6233756 Z M73.6521279,34.5431951 C74.2078962,35.0353951 74.8092044,35.4168585 75.4463102,35.6817512 C76.2797361,36.0255171 77.248309,36.2011024 78.3247277,36.2011024 C79.5366334,36.2011024 80.5169878,36.0229366 81.2391694,35.6717659 C81.9580658,35.3251951 82.5216506,34.8903268 82.9150838,34.3790537 C83.3106694,33.8680049 83.5810768,33.2969317 83.7199623,32.6814293 C83.8667775,32.0195902 83.9414313,31.3895024 83.9414313,30.8116976 L83.9414313,19.923161 L83.7150911,19.923161 L83.7150911,21.8732244 L82.8764542,21.8732244 C83.0967904,22.1983659 83.2783836,22.5509951 83.4190816,22.9266244 C83.6493867,23.5474 83.7660686,24.2146244 83.7660686,24.9109073 C83.7845338,25.6729366 83.6606018,26.3924439 83.3956319,27.0319561 C83.254141,27.3785268 83.0753798,27.7014244 82.8618406,27.9991902 L83.6643401,27.9991902 L83.7150911,28.712639 L83.7150911,30.8116976 C83.7150911,31.5125805 83.6257105,32.1801415 83.448422,32.7956439 C83.2576528,33.4556878 82.9448773,34.0380927 82.5181388,34.5269268 C82.0846033,35.0282146 81.5133152,35.4270683 80.8217201,35.7089024 C79.376564,36.3016293 77.1087439,36.2861463 75.46183,35.4614 C74.8507794,35.1553317 74.3148357,34.7747659 73.8598897,34.3250878 L73.6521279,34.5431951 Z M78.3247277,37.627439 C77.0566335,37.627439 75.9018227,37.4159512 74.8907685,36.9967902 C73.8757493,36.5768439 72.9432005,35.9224098 72.1188373,35.0502049 L71.6558481,34.5614829 L73.947571,32.1518683 L74.4604049,32.8372683 C74.8761549,33.3928585 75.4319232,33.8485951 76.1119634,34.1886585 C76.7983474,34.5320878 77.5466974,34.6997073 78.4005143,34.6997073 C79.1439932,34.6997073 79.7729425,34.5968244 80.2711629,34.3916195 C80.751711,34.1955024 81.140273,33.9279171 81.4259737,33.5979512 C81.7208504,33.2578878 81.9295184,32.8692439 82.0638725,32.4041951 C82.2036641,31.9168195 82.275146,31.3804146 82.275146,30.8116976 L82.275146,30.4733171 C81.959765,30.7128537 81.621954,30.9109902 81.2632988,31.0654829 C79.548075,31.8081024 77.5264197,31.7938537 75.8455208,31.1240488 C75.016513,30.7928488 74.2822101,30.3260049 73.6613039,29.7393366 C73.0372257,29.1503122 72.5408179,28.4372 72.1847682,27.6191854 C71.8281521,26.8018439 71.6468987,25.9073122 71.6468987,24.9611707 C71.6468987,24.0209756 71.8169371,23.1317171 72.1533887,22.3165073 C72.4915396,21.5002878 72.9608727,20.7777512 73.5494932,20.1681951 C74.1467232,19.5474195 74.8651664,19.0595951 75.684092,18.7160537 C76.836977,18.2306976 78.1444939,18.0551122 79.6213694,18.3077756 C80.0649871,18.3831707 80.5173277,18.5153366 80.9641173,18.7021415 C81.4037702,18.8873756 81.8438761,19.1437415 82.275146,19.4655171 L82.275146,18.4964878 L85.381603,18.4964878 L85.381603,30.8116976 C85.381603,31.4931707 85.2957342,32.2258049 85.1259224,32.990639 C84.9408173,33.8108976 84.582502,34.5686634 84.0595859,35.2452 C83.5294196,35.9336293 82.7935307,36.5088537 81.872197,36.9531463 C80.9523359,37.4002439 79.758329,37.627439 78.3247277,37.627439 L78.3247277,37.627439 Z" id="Fill-16" fill="#231F1F" mask="url(#mask-2)"></path>
                <path d="M90.2028306,30.9118878 L88.5365453,30.9118878 L88.5365453,19.2097122 L90.2028306,19.2097122 L90.2028306,30.9118878 Z M90.5809705,14.709678 C90.5809705,15.0588293 90.454433,15.3471707 90.2028306,15.5724585 C89.9505485,15.7965122 89.6723245,15.9092683 89.3688383,15.9092683 C89.0661451,15.9092683 88.7879211,15.7965122 88.5363187,15.5724585 C88.2829038,15.3471707 88.1578389,15.0588293 88.1578389,14.709678 C88.1578389,14.3581707 88.2829038,14.0724098 88.5363187,13.8462244 C88.7879211,13.6216098 89.0661451,13.5088537 89.3688383,13.5088537 C89.6723245,13.5088537 89.9505485,13.6216098 90.2028306,13.8462244 C90.454433,14.0724098 90.5809705,14.3581707 90.5809705,14.709678 L90.5809705,14.709678 Z" id="Fill-17" fill="#231F1F" mask="url(#mask-2)"></path>
                <polygon id="Fill-18" fill="#231F1F" mask="url(#mask-2)" points="87.8161762 31.6256732 90.9228598 31.6256732 90.9228598 18.4964878 87.8161762 18.4964878"></polygon>
                <polygon id="Fill-19" fill="#231F1F" mask="url(#mask-2)" points="89.2561213 30.199 89.4821263 30.199 89.4821263 19.9229119 89.2561213 19.9229119"></polygon>
                <path d="M89.3688383,16.6224927 C88.8907824,16.6224927 88.436516,16.4428683 88.0542979,16.1022439 C87.6512356,15.7442293 87.4376964,15.2623512 87.4376964,14.7095659 C87.4376964,14.157678 87.6506692,13.6758 88.0542979,13.3163268 C88.8179412,12.6337317 89.9225675,12.635078 90.6847381,13.3172244 C91.0883668,13.6786049 91.301113,14.1600341 91.301113,14.7095659 C91.301113,15.2603317 91.088027,15.7416488 90.6847381,16.1016829 C90.3019535,16.4428683 89.8475739,16.6224927 89.3688383,16.6224927" id="Fill-20" fill="#231F1F" mask="url(#mask-2)"></path>
                <path d="M101.522673,20.7105463 L98.1149954,20.7105463 L98.1149954,27.6111073 C98.1149954,28.0441805 98.1553242,28.4008488 98.2413063,28.6751659 C98.3243431,28.9495951 98.4424976,29.1610829 98.5947505,29.3115366 C98.7446244,29.4619902 98.9262177,29.5667805 99.1374912,29.6250098 C99.3468389,29.6835756 99.5791831,29.7124098 99.8307855,29.7124098 C100.117619,29.7124098 100.412836,29.6710098 100.715189,29.5873122 C101.019355,29.5039512 101.296333,29.3952341 101.548048,29.2619463 L101.623835,30.7879122 C101.002022,31.0697463 100.251407,31.212122 99.3778785,31.212122 C99.05706,31.212122 98.725253,31.1710585 98.3793988,31.086239 C98.0345642,31.004 97.7197496,30.8467024 97.4326895,30.6125512 C97.145856,30.3785122 96.9126055,30.0641415 96.7252348,29.6624829 C96.5399032,29.2619463 96.4479171,28.7365366 96.4479171,28.0861415 L96.4479171,20.7105463 L93.9492254,20.7105463 L93.9492254,19.2096 L96.4479171,19.2096 L96.4479171,15.9092683 L98.1149954,15.9092683 L98.1149954,19.2096 L101.522673,19.2096 L101.522673,20.7105463 Z" id="Fill-21" fill="#231F1F" mask="url(#mask-2)"></path>
                <path d="M94.6691413,19.9974341 L97.1685127,19.9974341 L97.1685127,28.0862537 C97.1685127,28.6321951 97.2394281,29.0624634 97.3797862,29.3661756 C97.5213904,29.6696634 97.6888233,29.8980927 97.890581,30.0627951 C98.0935848,30.2281707 98.3083701,30.3355415 98.548191,30.3926488 C99.4415438,30.614122 100.236906,30.494522 100.878883,30.3049122 L100.877411,30.2826976 C100.196804,30.4653512 99.5066818,30.4677073 98.9416242,30.3117561 C98.6110633,30.2202049 98.3216243,30.0525854 98.0829362,29.8136098 C97.8476466,29.5809171 97.6680924,29.2659854 97.5516371,28.8800341 C97.4469632,28.5445707 97.3950794,28.1276537 97.3950794,27.6112195 L97.3950794,19.9974341 L100.802191,19.9974341 L100.802191,19.9229366 L97.3950794,19.9229366 L97.3950794,16.6224927 L97.1685127,16.6224927 L97.1685127,19.9229366 L94.6691413,19.9229366 L94.6691413,19.9974341 Z M99.3781051,31.9248976 C98.9955471,31.9248976 98.6015475,31.8760927 98.2059619,31.7787073 C97.7606449,31.6727951 97.3446683,31.4648976 96.9750247,31.1632049 C96.6075334,30.8634195 96.3039339,30.4597415 96.0713631,29.9623805 C95.8401517,29.4621024 95.728341,28.8491805 95.728341,28.0862537 L95.728341,21.4237707 L93.2289697,21.4237707 L93.2289697,18.4966 L95.728341,18.4966 L95.728341,15.1961561 L98.8346847,15.1961561 L98.8346847,18.4966 L102.242702,18.4966 L102.242702,21.4237707 L98.8346847,21.4237707 L98.8346847,27.6112195 C98.8346847,28.0666195 98.8863419,28.3270244 98.9289365,28.4649122 C98.9903361,28.6669756 99.057853,28.7617805 99.1036195,28.8077805 C99.1679644,28.8713951 99.2397861,28.9133561 99.3314324,28.9388244 C99.6513446,29.0262244 100.083747,29.0205024 100.521927,28.9011268 C100.773077,28.8312293 101.003382,28.7421463 101.207745,28.6333171 L102.211209,28.1000537 L102.367201,31.2353463 L101.923016,31.437522 C101.208085,31.7604195 100.351323,31.9248976 99.3781051,31.9248976 L99.3781051,31.9248976 Z" id="Fill-22" fill="#231F1F" mask="url(#mask-2)"></path>
                <path d="M112.429144,25.0862683 C112.008523,25.0862683 111.482435,25.1074732 110.852353,25.1490976 C110.219552,25.1902732 109.613032,25.2895659 109.032455,25.4488829 C108.45335,25.6065171 107.954904,25.8534585 107.543232,26.1863415 C107.130993,26.5203463 106.924251,26.9786634 106.924251,27.5621902 C106.924251,27.9467951 107.004456,28.2739561 107.164752,28.5482732 C107.325274,28.8243854 107.538587,29.0498976 107.808995,29.2254829 C108.077363,29.3990488 108.375411,29.5247073 108.704953,29.5989805 C109.032455,29.674039 109.365961,29.7117366 109.702073,29.7117366 C110.309159,29.7117366 110.834114,29.6126683 111.280111,29.4119512 C111.725768,29.2112341 112.099603,28.9408439 112.403769,28.5985366 C112.706122,28.2588098 112.92963,27.8573756 113.07282,27.3993951 C113.215218,26.9409659 113.287039,26.4535902 113.287039,25.9356976 L113.287039,25.0862683 L112.429144,25.0862683 Z M113.287039,23.7353268 L113.287039,23.4357659 C113.287039,21.418722 112.277231,20.4106488 110.257615,20.4106488 C108.877937,20.4106488 107.674074,20.8699756 106.646934,21.7853756 L105.637125,20.6104683 C106.748775,19.4765122 108.414947,18.910039 110.635528,18.910039 C111.209762,18.910039 111.759753,18.9925024 112.291052,19.159561 C112.819745,19.3268439 113.27843,19.5818634 113.664953,19.9230488 C114.053515,20.2633366 114.364364,20.6947268 114.600447,21.2106 C114.835397,21.7273707 114.953551,22.3443317 114.953551,23.060361 L114.953551,28.286522 C114.953551,28.735078 114.974848,29.2086537 115.01699,29.7000683 C115.059018,30.1904732 115.103765,30.5959463 115.156215,30.9134585 L113.538755,30.9134585 C113.490836,30.6299415 113.45164,30.3203951 113.426264,29.9858293 C113.400889,29.6529463 113.387975,29.3285902 113.387975,29.0108537 L113.337224,29.0108537 C112.849765,29.7965561 112.273153,30.3580927 111.607613,30.6989415 C110.942526,31.041922 110.13221,31.2117854 109.17338,31.2117854 C108.649897,31.2117854 108.145106,31.1406537 107.656855,31.0001854 C107.169057,30.8576976 106.735748,30.6421707 106.357608,30.3497902 C105.977882,30.0580829 105.673829,29.7000683 105.449188,29.2729415 C105.221149,28.8495171 105.107299,28.353278 105.107299,27.785122 C105.107299,26.835278 105.354937,26.090078 105.851344,25.5482878 C106.348885,25.0078439 106.970471,24.6027073 107.72052,24.3354585 C108.470003,24.0691073 109.268878,23.9026098 110.11805,23.8349561 C110.969374,23.7695463 111.748538,23.7353268 112.45452,23.7353268 L113.287039,23.7353268 Z" id="Fill-23" fill="#231F1F" mask="url(#mask-2)"></path>
                <path d="M112.429144,25.8003902 C112.021211,25.8003902 111.511322,25.8198 110.900385,25.8603024 C110.318108,25.899122 109.753957,25.9910098 109.224131,26.136078 C108.743356,26.2668976 108.330778,26.4700829 107.998744,26.7391268 C107.753372,26.9369268 107.644167,27.1916098 107.644167,27.5621902 C107.644167,27.8200146 107.691406,28.0261171 107.787924,28.1917171 C107.89373,28.3730244 108.029217,28.5151756 108.20424,28.6290537 C108.403959,28.7587512 108.61965,28.8478341 108.863776,28.9034829 C109.63467,29.0768244 110.440341,29.0053561 110.982062,28.7630146 C111.337999,28.6025756 111.625965,28.3950146 111.862387,28.1277659 C112.096771,27.8645561 112.272586,27.5485024 112.385643,27.1875707 C112.505837,26.800161 112.566897,26.3785317 112.566897,25.9356976 L112.566897,25.8003902 L112.429144,25.8003902 Z M114.168044,30.2002341 L114.340348,30.2002341 C114.326301,30.0629073 114.312367,29.9146976 114.298886,29.7603171 C114.255386,29.2478098 114.233409,28.7547122 114.233409,28.286522 L114.233409,23.0601366 C114.233409,22.4502439 114.136325,21.9258439 113.943743,21.5029805 C113.749689,21.0789951 113.494574,20.7258049 113.187916,20.4563122 C112.8765,20.1819951 112.501759,19.9744341 112.072301,19.8393512 C111.611012,19.693722 111.140885,19.6234878 110.635528,19.6234878 C108.939903,19.6234878 107.60112,19.9792585 106.645008,20.6818244 L106.742092,20.795478 C107.77331,20.066322 108.952024,19.6974244 110.257615,19.6974244 C112.675309,19.6974244 114.007182,21.0246927 114.007182,23.4357659 L114.007182,25.9356976 C114.007182,26.5203463 113.924372,27.0831171 113.76181,27.6081902 C113.685457,27.8508683 113.590639,28.0804195 113.477355,28.2976293 L114.057593,28.2976293 L114.108004,29.0108537 C114.108004,29.310639 114.120125,29.6183902 114.144028,29.9329854 C114.151278,30.0235268 114.159321,30.1128341 114.168044,30.2002341 L114.168044,30.2002341 Z M109.094988,24.6957171 C108.703254,24.7745902 108.325567,24.8781463 107.963853,25.0069463 C107.324142,25.235039 106.806663,25.5688195 106.382983,26.0287073 C106.009375,26.436761 105.827442,27.0119854 105.827442,27.785122 C105.827442,28.2325561 105.91365,28.6208634 106.084255,28.9371415 C106.263922,29.2788878 106.496833,29.5541024 106.79862,29.7853366 C107.107884,30.0248732 107.453851,30.1973171 107.860085,30.3157951 C108.668929,30.5499463 109.596833,30.5408585 110.324226,30.3909659 C109.760867,30.4537951 109.130785,30.4274293 108.542391,30.2939171 C108.136723,30.2028146 107.756544,30.0429366 107.414655,29.8213512 C107.051695,29.5864146 106.757385,29.2768683 106.540674,28.9034829 C106.317732,28.5220195 106.204222,28.070322 106.204222,27.5621902 C106.204222,26.7698683 106.509521,26.1026439 107.086926,25.6342293 C107.57699,25.2387415 108.166743,24.9450146 108.841346,24.7611268 C108.925516,24.738239 109.009912,24.7165854 109.094988,24.6957171 L109.094988,24.6957171 Z M109.17338,31.9246732 C108.586458,31.9246732 108.008826,31.8441171 107.45589,31.6851366 C106.878711,31.5166195 106.361006,31.2565512 105.914217,30.912 C105.453493,30.5584732 105.081357,30.1168732 104.810383,29.6026829 C104.5308,29.0818732 104.38727,28.4691756 104.38727,27.785122 C104.38727,26.6568878 104.700272,25.7432829 105.318006,25.0692146 C105.896884,24.4399122 106.622804,23.9685805 107.476961,23.6645317 C108.28116,23.3780976 109.15061,23.1960049 110.060389,23.1237512 C110.933917,23.0566585 111.731545,23.0221024 112.45452,23.0221024 L112.549904,23.0221024 C112.435488,21.6968537 111.730979,21.1235366 110.257615,21.1235366 C109.051713,21.1235366 108.028424,21.5135268 107.128728,22.3152732 L106.578624,22.8054537 L104.664814,20.5790537 L105.120327,20.1136683 C106.367124,18.8420488 108.222366,18.1968146 110.635528,18.1968146 C111.28215,18.1968146 111.912232,18.2925171 112.509009,18.4797707 C113.133087,18.6770098 113.682851,18.9834146 114.144028,19.3902341 C114.602373,19.7925659 114.977227,20.3058585 115.256244,20.9159756 C115.533562,21.5260927 115.673694,22.2469463 115.673694,23.0601366 L115.673694,28.286522 C115.673694,28.7153317 115.693858,29.1698341 115.734413,29.6403805 C115.774289,30.1083463 115.817224,30.4957561 115.867068,30.7992439 L116.002555,31.6269073 L112.928384,31.6269073 L112.828355,31.0307024 C112.813741,30.9442 112.800147,30.8551171 112.786893,30.7628927 C112.519997,30.9885171 112.237129,31.1798098 111.93874,31.3328439 C111.175777,31.725639 110.245154,31.9246732 109.17338,31.9246732 L109.17338,31.9246732 Z" id="Fill-24" fill="#231F1F" mask="url(#mask-2)"></path>
                <polygon id="Fill-25" fill="#231F1F" mask="url(#mask-2)" points="118.892754 30.9118878 120.559266 30.9118878 120.559266 12.0076829 118.892754 12.0076829"></polygon>
                <path d="M119.612557,30.199 L119.838897,30.199 L119.838897,12.7207951 L119.612557,12.7207951 L119.612557,30.199 Z M121.279295,31.6256732 L118.172612,31.6256732 L118.172612,11.2947951 L121.279295,11.2947951 L121.279295,31.6256732 Z" id="Fill-26" fill="#231F1F" mask="url(#mask-2)"></path>
                <g id="Group-29" mask="url(#mask-2)">
                    <path d="M1.96945118,44.1406735 L131.98199,44.1406735 L131.98199,1.9131606 L1.96945118,1.9131606 L1.96945118,44.1406735 Z M133.851432,45.9202098 L0.100009433,45.9202098 L0.100009433,0.13390986 L133.851432,0.13390986 L133.851432,45.9202098 Z" id="Fill-27" fill="#60B45D"></path>
                    <path d="M1.96945118,44.1406735 L131.98199,44.1406735 L131.98199,1.9131606 L1.96945118,1.9131606 L1.96945118,44.1406735 Z M133.851432,45.9202098 L0.100009433,45.9202098 L0.100009433,0.13390986 L133.851432,0.13390986 L133.851432,45.9202098 Z" id="Stroke-28" stroke="#60B45D" stroke-width="0.565060231"></path>
                </g>
            </g>
        </g>
    </g>
</svg>